<mxfile host="app.diagrams.net" modified="2024-03-24T14:36:36.015Z" agent="Mozilla/5.0 (Windows NT 10.0; Win64; x64) AppleWebKit/537.36 (KHTML, like Gecko) Chrome/123.0.0.0 Safari/537.36" etag="tuG9b3aPcSrYhCozApRb" version="24.1.0" type="device">
  <diagram name="Page-1" id="PPr3Hd1fLsmqcSijxiQH">
    <mxGraphModel dx="880" dy="434" grid="1" gridSize="10" guides="1" tooltips="1" connect="1" arrows="1" fold="1" page="1" pageScale="1" pageWidth="850" pageHeight="1100" math="0" shadow="0">
      <root>
        <mxCell id="0" />
        <mxCell id="1" parent="0" />
        <mxCell id="nYNtPXtImg6T7VVJLSyN-1" value="Admin" style="shape=umlActor;verticalLabelPosition=bottom;verticalAlign=top;html=1;outlineConnect=0;" vertex="1" parent="1">
          <mxGeometry x="120" y="210" width="30" height="60" as="geometry" />
        </mxCell>
        <mxCell id="nYNtPXtImg6T7VVJLSyN-2" value="Login" style="ellipse;whiteSpace=wrap;html=1;" vertex="1" parent="1">
          <mxGeometry x="288" y="275" width="60" height="30" as="geometry" />
        </mxCell>
        <mxCell id="nYNtPXtImg6T7VVJLSyN-3" value="Logout" style="ellipse;whiteSpace=wrap;html=1;" vertex="1" parent="1">
          <mxGeometry x="258" y="380" width="60" height="30" as="geometry" />
        </mxCell>
        <mxCell id="nYNtPXtImg6T7VVJLSyN-4" value="Username" style="ellipse;whiteSpace=wrap;html=1;" vertex="1" parent="1">
          <mxGeometry x="258" y="160" width="70" height="30" as="geometry" />
        </mxCell>
        <mxCell id="nYNtPXtImg6T7VVJLSyN-5" value="Password" style="ellipse;whiteSpace=wrap;html=1;" vertex="1" parent="1">
          <mxGeometry x="338" y="110" width="70" height="30" as="geometry" />
        </mxCell>
        <mxCell id="nYNtPXtImg6T7VVJLSyN-6" value="" style="endArrow=open;html=1;rounded=0;dashed=1;endFill=0;entryX=0.283;entryY=0;entryDx=0;entryDy=0;entryPerimeter=0;exitX=0.5;exitY=1;exitDx=0;exitDy=0;" edge="1" parent="1" source="nYNtPXtImg6T7VVJLSyN-4" target="nYNtPXtImg6T7VVJLSyN-2">
          <mxGeometry width="50" height="50" relative="1" as="geometry">
            <mxPoint x="297.99869565217375" y="120" as="sourcePoint" />
            <mxPoint x="315.39" y="220" as="targetPoint" />
          </mxGeometry>
        </mxCell>
        <mxCell id="nYNtPXtImg6T7VVJLSyN-7" value="Add lecturer" style="ellipse;whiteSpace=wrap;html=1;" vertex="1" parent="1">
          <mxGeometry x="468" y="130" width="70" height="30" as="geometry" />
        </mxCell>
        <mxCell id="nYNtPXtImg6T7VVJLSyN-8" value="Modify or delete lecturer" style="ellipse;whiteSpace=wrap;html=1;" vertex="1" parent="1">
          <mxGeometry x="658" y="130" width="100" height="40" as="geometry" />
        </mxCell>
        <mxCell id="nYNtPXtImg6T7VVJLSyN-9" value="Add course" style="ellipse;whiteSpace=wrap;html=1;" vertex="1" parent="1">
          <mxGeometry x="468" y="350" width="70" height="30" as="geometry" />
        </mxCell>
        <mxCell id="nYNtPXtImg6T7VVJLSyN-10" value="Modify or delete course" style="ellipse;whiteSpace=wrap;html=1;" vertex="1" parent="1">
          <mxGeometry x="658" y="345" width="100" height="40" as="geometry" />
        </mxCell>
        <mxCell id="nYNtPXtImg6T7VVJLSyN-11" value="Add notice" style="ellipse;whiteSpace=wrap;html=1;" vertex="1" parent="1">
          <mxGeometry x="468" y="410" width="70" height="30" as="geometry" />
        </mxCell>
        <mxCell id="nYNtPXtImg6T7VVJLSyN-12" value="Modify or delete notice" style="ellipse;whiteSpace=wrap;html=1;" vertex="1" parent="1">
          <mxGeometry x="658" y="405" width="100" height="40" as="geometry" />
        </mxCell>
        <mxCell id="nYNtPXtImg6T7VVJLSyN-13" value="Add new student" style="ellipse;whiteSpace=wrap;html=1;" vertex="1" parent="1">
          <mxGeometry x="463" y="275" width="80" height="40" as="geometry" />
        </mxCell>
        <mxCell id="nYNtPXtImg6T7VVJLSyN-14" value="Modify or delete student" style="ellipse;whiteSpace=wrap;html=1;" vertex="1" parent="1">
          <mxGeometry x="658" y="275" width="100" height="40" as="geometry" />
        </mxCell>
        <mxCell id="nYNtPXtImg6T7VVJLSyN-15" value="Add timetable" style="ellipse;whiteSpace=wrap;html=1;" vertex="1" parent="1">
          <mxGeometry x="463" y="470" width="80" height="40" as="geometry" />
        </mxCell>
        <mxCell id="nYNtPXtImg6T7VVJLSyN-16" value="Modify or delete timetable" style="ellipse;whiteSpace=wrap;html=1;" vertex="1" parent="1">
          <mxGeometry x="658" y="470" width="100" height="40" as="geometry" />
        </mxCell>
        <mxCell id="nYNtPXtImg6T7VVJLSyN-17" value="Add technical officer" style="ellipse;whiteSpace=wrap;html=1;" vertex="1" parent="1">
          <mxGeometry x="458" y="205" width="90" height="50" as="geometry" />
        </mxCell>
        <mxCell id="nYNtPXtImg6T7VVJLSyN-18" value="Modify or delete technical officer" style="ellipse;whiteSpace=wrap;html=1;" vertex="1" parent="1">
          <mxGeometry x="653" y="205" width="110" height="50" as="geometry" />
        </mxCell>
        <mxCell id="nYNtPXtImg6T7VVJLSyN-19" value="&amp;lt;&amp;lt;extend&amp;gt;&amp;gt;" style="text;html=1;align=center;verticalAlign=middle;whiteSpace=wrap;rounded=0;" vertex="1" parent="1">
          <mxGeometry x="228" y="220" width="70" height="20" as="geometry" />
        </mxCell>
        <mxCell id="nYNtPXtImg6T7VVJLSyN-20" value="" style="endArrow=open;html=1;rounded=0;dashed=1;endFill=0;entryX=0.683;entryY=0.1;entryDx=0;entryDy=0;entryPerimeter=0;exitX=0.3;exitY=1;exitDx=0;exitDy=0;exitPerimeter=0;" edge="1" parent="1" source="nYNtPXtImg6T7VVJLSyN-5" target="nYNtPXtImg6T7VVJLSyN-2">
          <mxGeometry width="50" height="50" relative="1" as="geometry">
            <mxPoint x="357" y="150" as="sourcePoint" />
            <mxPoint x="369" y="235" as="targetPoint" />
          </mxGeometry>
        </mxCell>
        <mxCell id="nYNtPXtImg6T7VVJLSyN-21" value="&amp;lt;&amp;lt;extend&amp;gt;&amp;gt;" style="text;html=1;align=center;verticalAlign=middle;whiteSpace=wrap;rounded=0;" vertex="1" parent="1">
          <mxGeometry x="288" y="140" width="70" height="20" as="geometry" />
        </mxCell>
        <mxCell id="nYNtPXtImg6T7VVJLSyN-22" value="" style="endArrow=open;html=1;rounded=0;dashed=1;endFill=0;entryX=0.5;entryY=0;entryDx=0;entryDy=0;exitX=0.3;exitY=1;exitDx=0;exitDy=0;exitPerimeter=0;" edge="1" parent="1" target="nYNtPXtImg6T7VVJLSyN-3">
          <mxGeometry width="50" height="50" relative="1" as="geometry">
            <mxPoint x="298" y="302" as="sourcePoint" />
            <mxPoint x="268" y="440" as="targetPoint" />
          </mxGeometry>
        </mxCell>
        <mxCell id="nYNtPXtImg6T7VVJLSyN-23" value="&amp;lt;&amp;lt;extend&amp;gt;&amp;gt;" style="text;html=1;align=center;verticalAlign=middle;whiteSpace=wrap;rounded=0;" vertex="1" parent="1">
          <mxGeometry x="228" y="320" width="70" height="20" as="geometry" />
        </mxCell>
        <mxCell id="nYNtPXtImg6T7VVJLSyN-24" value="" style="endArrow=open;html=1;rounded=0;dashed=1;endFill=0;entryX=0.029;entryY=0.733;entryDx=0;entryDy=0;entryPerimeter=0;exitX=1;exitY=0.5;exitDx=0;exitDy=0;" edge="1" parent="1" source="nYNtPXtImg6T7VVJLSyN-2" target="nYNtPXtImg6T7VVJLSyN-7">
          <mxGeometry width="50" height="50" relative="1" as="geometry">
            <mxPoint x="408" y="172" as="sourcePoint" />
            <mxPoint x="378" y="310" as="targetPoint" />
          </mxGeometry>
        </mxCell>
        <mxCell id="nYNtPXtImg6T7VVJLSyN-25" value="" style="endArrow=open;html=1;rounded=0;dashed=1;endFill=0;entryX=0.008;entryY=0.619;entryDx=0;entryDy=0;entryPerimeter=0;exitX=1.064;exitY=0.409;exitDx=0;exitDy=0;exitPerimeter=0;" edge="1" parent="1" source="nYNtPXtImg6T7VVJLSyN-2" target="nYNtPXtImg6T7VVJLSyN-17">
          <mxGeometry width="50" height="50" relative="1" as="geometry">
            <mxPoint x="348" y="287" as="sourcePoint" />
            <mxPoint x="479" y="160" as="targetPoint" />
          </mxGeometry>
        </mxCell>
        <mxCell id="nYNtPXtImg6T7VVJLSyN-26" value="" style="endArrow=open;html=1;rounded=0;dashed=1;endFill=0;entryX=0.008;entryY=0.619;entryDx=0;entryDy=0;entryPerimeter=0;exitX=1;exitY=0.5;exitDx=0;exitDy=0;" edge="1" parent="1" source="nYNtPXtImg6T7VVJLSyN-2">
          <mxGeometry width="50" height="50" relative="1" as="geometry">
            <mxPoint x="356" y="363" as="sourcePoint" />
            <mxPoint x="463" y="297" as="targetPoint" />
          </mxGeometry>
        </mxCell>
        <mxCell id="nYNtPXtImg6T7VVJLSyN-27" value="" style="endArrow=open;html=1;rounded=0;dashed=1;endFill=0;entryX=0.008;entryY=0.619;entryDx=0;entryDy=0;entryPerimeter=0;exitX=1;exitY=0.5;exitDx=0;exitDy=0;" edge="1" parent="1" source="nYNtPXtImg6T7VVJLSyN-2">
          <mxGeometry width="50" height="50" relative="1" as="geometry">
            <mxPoint x="353" y="356.5" as="sourcePoint" />
            <mxPoint x="468" y="363.5" as="targetPoint" />
          </mxGeometry>
        </mxCell>
        <mxCell id="nYNtPXtImg6T7VVJLSyN-28" value="" style="endArrow=open;html=1;rounded=0;dashed=1;endFill=0;entryX=0.008;entryY=0.619;entryDx=0;entryDy=0;entryPerimeter=0;" edge="1" parent="1">
          <mxGeometry width="50" height="50" relative="1" as="geometry">
            <mxPoint x="348" y="290" as="sourcePoint" />
            <mxPoint x="468" y="423.5" as="targetPoint" />
          </mxGeometry>
        </mxCell>
        <mxCell id="nYNtPXtImg6T7VVJLSyN-29" value="" style="endArrow=open;html=1;rounded=0;dashed=1;endFill=0;entryX=0.008;entryY=0.619;entryDx=0;entryDy=0;entryPerimeter=0;" edge="1" parent="1">
          <mxGeometry width="50" height="50" relative="1" as="geometry">
            <mxPoint x="348" y="290" as="sourcePoint" />
            <mxPoint x="463" y="491.75" as="targetPoint" />
          </mxGeometry>
        </mxCell>
        <mxCell id="nYNtPXtImg6T7VVJLSyN-30" value="&lt;font style=&quot;font-size: 10px;&quot;&gt;&amp;lt;&amp;lt;include&amp;gt;&amp;gt;&lt;/font&gt;" style="text;html=1;align=center;verticalAlign=middle;whiteSpace=wrap;rounded=0;" vertex="1" parent="1">
          <mxGeometry x="378" y="160" width="70" height="20" as="geometry" />
        </mxCell>
        <mxCell id="nYNtPXtImg6T7VVJLSyN-31" value="&lt;font style=&quot;font-size: 10px;&quot;&gt;&amp;lt;&amp;lt;include&amp;gt;&amp;gt;&lt;/font&gt;" style="text;html=1;align=center;verticalAlign=middle;whiteSpace=wrap;rounded=0;" vertex="1" parent="1">
          <mxGeometry x="388" y="228" width="70" height="20" as="geometry" />
        </mxCell>
        <mxCell id="nYNtPXtImg6T7VVJLSyN-32" value="&lt;font style=&quot;font-size: 10px;&quot;&gt;&amp;lt;&amp;lt;include&amp;gt;&amp;gt;&lt;/font&gt;" style="text;html=1;align=center;verticalAlign=middle;whiteSpace=wrap;rounded=0;" vertex="1" parent="1">
          <mxGeometry x="393" y="270" width="70" height="20" as="geometry" />
        </mxCell>
        <mxCell id="nYNtPXtImg6T7VVJLSyN-33" value="&lt;font style=&quot;font-size: 10px;&quot;&gt;&amp;lt;&amp;lt;include&amp;gt;&amp;gt;&lt;/font&gt;" style="text;html=1;align=center;verticalAlign=middle;whiteSpace=wrap;rounded=0;" vertex="1" parent="1">
          <mxGeometry x="408" y="320" width="70" height="20" as="geometry" />
        </mxCell>
        <mxCell id="nYNtPXtImg6T7VVJLSyN-34" value="&lt;font style=&quot;font-size: 10px;&quot;&gt;&amp;lt;&amp;lt;include&amp;gt;&amp;gt;&lt;/font&gt;" style="text;html=1;align=center;verticalAlign=middle;whiteSpace=wrap;rounded=0;" vertex="1" parent="1">
          <mxGeometry x="428" y="380" width="70" height="20" as="geometry" />
        </mxCell>
        <mxCell id="nYNtPXtImg6T7VVJLSyN-35" value="&lt;font style=&quot;font-size: 10px;&quot;&gt;&amp;lt;&amp;lt;include&amp;gt;&amp;gt;&lt;/font&gt;" style="text;html=1;align=center;verticalAlign=middle;whiteSpace=wrap;rounded=0;" vertex="1" parent="1">
          <mxGeometry x="438" y="442" width="70" height="20" as="geometry" />
        </mxCell>
        <mxCell id="nYNtPXtImg6T7VVJLSyN-36" value="" style="endArrow=open;html=1;rounded=0;dashed=1;endFill=0;exitX=1;exitY=0.5;exitDx=0;exitDy=0;entryX=0.024;entryY=0.325;entryDx=0;entryDy=0;entryPerimeter=0;" edge="1" parent="1" source="nYNtPXtImg6T7VVJLSyN-7" target="nYNtPXtImg6T7VVJLSyN-8">
          <mxGeometry width="50" height="50" relative="1" as="geometry">
            <mxPoint x="548" y="194" as="sourcePoint" />
            <mxPoint x="608" y="140" as="targetPoint" />
          </mxGeometry>
        </mxCell>
        <mxCell id="nYNtPXtImg6T7VVJLSyN-37" value="" style="endArrow=open;html=1;rounded=0;dashed=1;endFill=0;exitX=1;exitY=0.5;exitDx=0;exitDy=0;entryX=0;entryY=0.5;entryDx=0;entryDy=0;" edge="1" parent="1" target="nYNtPXtImg6T7VVJLSyN-18">
          <mxGeometry width="50" height="50" relative="1" as="geometry">
            <mxPoint x="548" y="230" as="sourcePoint" />
            <mxPoint x="670" y="228" as="targetPoint" />
          </mxGeometry>
        </mxCell>
        <mxCell id="nYNtPXtImg6T7VVJLSyN-38" value="" style="endArrow=open;html=1;rounded=0;dashed=1;endFill=0;exitX=1;exitY=0.5;exitDx=0;exitDy=0;entryX=0;entryY=0.5;entryDx=0;entryDy=0;" edge="1" parent="1" target="nYNtPXtImg6T7VVJLSyN-14">
          <mxGeometry width="50" height="50" relative="1" as="geometry">
            <mxPoint x="543" y="294.6" as="sourcePoint" />
            <mxPoint x="648" y="294.6" as="targetPoint" />
          </mxGeometry>
        </mxCell>
        <mxCell id="nYNtPXtImg6T7VVJLSyN-39" value="" style="endArrow=open;html=1;rounded=0;dashed=1;endFill=0;exitX=1;exitY=0.5;exitDx=0;exitDy=0;entryX=0;entryY=0.5;entryDx=0;entryDy=0;" edge="1" parent="1" target="nYNtPXtImg6T7VVJLSyN-10">
          <mxGeometry width="50" height="50" relative="1" as="geometry">
            <mxPoint x="538" y="364.6" as="sourcePoint" />
            <mxPoint x="643" y="364.6" as="targetPoint" />
          </mxGeometry>
        </mxCell>
        <mxCell id="nYNtPXtImg6T7VVJLSyN-40" value="" style="endArrow=open;html=1;rounded=0;dashed=1;endFill=0;exitX=1;exitY=0.5;exitDx=0;exitDy=0;entryX=0;entryY=0.5;entryDx=0;entryDy=0;" edge="1" parent="1">
          <mxGeometry width="50" height="50" relative="1" as="geometry">
            <mxPoint x="538" y="424.6" as="sourcePoint" />
            <mxPoint x="658" y="425" as="targetPoint" />
          </mxGeometry>
        </mxCell>
        <mxCell id="nYNtPXtImg6T7VVJLSyN-41" value="" style="endArrow=open;html=1;rounded=0;dashed=1;endFill=0;exitX=1;exitY=0.5;exitDx=0;exitDy=0;entryX=0;entryY=0.5;entryDx=0;entryDy=0;" edge="1" parent="1" target="nYNtPXtImg6T7VVJLSyN-16">
          <mxGeometry width="50" height="50" relative="1" as="geometry">
            <mxPoint x="543" y="490" as="sourcePoint" />
            <mxPoint x="648" y="490" as="targetPoint" />
          </mxGeometry>
        </mxCell>
        <mxCell id="nYNtPXtImg6T7VVJLSyN-42" value="&lt;font style=&quot;font-size: 10px;&quot;&gt;&amp;lt;&amp;lt;include&amp;gt;&amp;gt;&lt;/font&gt;" style="text;html=1;align=center;verticalAlign=middle;whiteSpace=wrap;rounded=0;" vertex="1" parent="1">
          <mxGeometry x="558" y="120" width="70" height="20" as="geometry" />
        </mxCell>
        <mxCell id="nYNtPXtImg6T7VVJLSyN-43" value="&lt;font style=&quot;font-size: 10px;&quot;&gt;&amp;lt;&amp;lt;include&amp;gt;&amp;gt;&lt;/font&gt;" style="text;html=1;align=center;verticalAlign=middle;whiteSpace=wrap;rounded=0;" vertex="1" parent="1">
          <mxGeometry x="558" y="208" width="70" height="20" as="geometry" />
        </mxCell>
        <mxCell id="nYNtPXtImg6T7VVJLSyN-44" value="&lt;font style=&quot;font-size: 10px;&quot;&gt;&amp;lt;&amp;lt;include&amp;gt;&amp;gt;&lt;/font&gt;" style="text;html=1;align=center;verticalAlign=middle;whiteSpace=wrap;rounded=0;" vertex="1" parent="1">
          <mxGeometry x="558" y="275" width="70" height="20" as="geometry" />
        </mxCell>
        <mxCell id="nYNtPXtImg6T7VVJLSyN-45" value="&lt;font style=&quot;font-size: 10px;&quot;&gt;&amp;lt;&amp;lt;include&amp;gt;&amp;gt;&lt;/font&gt;" style="text;html=1;align=center;verticalAlign=middle;whiteSpace=wrap;rounded=0;" vertex="1" parent="1">
          <mxGeometry x="558" y="345" width="70" height="20" as="geometry" />
        </mxCell>
        <mxCell id="nYNtPXtImg6T7VVJLSyN-46" value="&lt;font style=&quot;font-size: 10px;&quot;&gt;&amp;lt;&amp;lt;include&amp;gt;&amp;gt;&lt;/font&gt;" style="text;html=1;align=center;verticalAlign=middle;whiteSpace=wrap;rounded=0;" vertex="1" parent="1">
          <mxGeometry x="558" y="405" width="70" height="20" as="geometry" />
        </mxCell>
        <mxCell id="nYNtPXtImg6T7VVJLSyN-47" value="&lt;font style=&quot;font-size: 10px;&quot;&gt;&amp;lt;&amp;lt;include&amp;gt;&amp;gt;&lt;/font&gt;" style="text;html=1;align=center;verticalAlign=middle;whiteSpace=wrap;rounded=0;" vertex="1" parent="1">
          <mxGeometry x="558" y="470" width="70" height="20" as="geometry" />
        </mxCell>
        <mxCell id="nYNtPXtImg6T7VVJLSyN-48" value="" style="endArrow=none;html=1;rounded=0;entryX=0;entryY=0.5;entryDx=0;entryDy=0;exitX=0.633;exitY=0.633;exitDx=0;exitDy=0;exitPerimeter=0;" edge="1" parent="1" source="nYNtPXtImg6T7VVJLSyN-1" target="nYNtPXtImg6T7VVJLSyN-2">
          <mxGeometry width="50" height="50" relative="1" as="geometry">
            <mxPoint x="128" y="255" as="sourcePoint" />
            <mxPoint x="178" y="205" as="targetPoint" />
          </mxGeometry>
        </mxCell>
        <mxCell id="nYNtPXtImg6T7VVJLSyN-81" value="Lecturer" style="shape=umlActor;verticalLabelPosition=bottom;verticalAlign=top;html=1;outlineConnect=0;" vertex="1" parent="1">
          <mxGeometry x="121.5" y="660" width="30" height="60" as="geometry" />
        </mxCell>
        <mxCell id="nYNtPXtImg6T7VVJLSyN-82" value="Login" style="ellipse;whiteSpace=wrap;html=1;" vertex="1" parent="1">
          <mxGeometry x="289.5" y="725" width="60" height="30" as="geometry" />
        </mxCell>
        <mxCell id="nYNtPXtImg6T7VVJLSyN-83" value="Logout" style="ellipse;whiteSpace=wrap;html=1;" vertex="1" parent="1">
          <mxGeometry x="259.5" y="830" width="60" height="30" as="geometry" />
        </mxCell>
        <mxCell id="nYNtPXtImg6T7VVJLSyN-84" value="Username" style="ellipse;whiteSpace=wrap;html=1;" vertex="1" parent="1">
          <mxGeometry x="259.5" y="610" width="70" height="30" as="geometry" />
        </mxCell>
        <mxCell id="nYNtPXtImg6T7VVJLSyN-85" value="Password" style="ellipse;whiteSpace=wrap;html=1;" vertex="1" parent="1">
          <mxGeometry x="339.5" y="560" width="70" height="30" as="geometry" />
        </mxCell>
        <mxCell id="nYNtPXtImg6T7VVJLSyN-86" value="" style="endArrow=open;html=1;rounded=0;dashed=1;endFill=0;entryX=0.283;entryY=0;entryDx=0;entryDy=0;entryPerimeter=0;exitX=0.5;exitY=1;exitDx=0;exitDy=0;" edge="1" parent="1" source="nYNtPXtImg6T7VVJLSyN-84" target="nYNtPXtImg6T7VVJLSyN-82">
          <mxGeometry width="50" height="50" relative="1" as="geometry">
            <mxPoint x="299.49869565217375" y="570" as="sourcePoint" />
            <mxPoint x="316.89" y="670" as="targetPoint" />
          </mxGeometry>
        </mxCell>
        <mxCell id="nYNtPXtImg6T7VVJLSyN-87" value="View notice" style="ellipse;whiteSpace=wrap;html=1;" vertex="1" parent="1">
          <mxGeometry x="469.5" y="800" width="70" height="30" as="geometry" />
        </mxCell>
        <mxCell id="nYNtPXtImg6T7VVJLSyN-88" value="Upload exam mark" style="ellipse;whiteSpace=wrap;html=1;" vertex="1" parent="1">
          <mxGeometry x="464.5" y="725" width="85" height="45" as="geometry" />
        </mxCell>
        <mxCell id="nYNtPXtImg6T7VVJLSyN-89" value="Add course material" style="ellipse;whiteSpace=wrap;html=1;" vertex="1" parent="1">
          <mxGeometry x="459.5" y="655" width="90" height="50" as="geometry" />
        </mxCell>
        <mxCell id="nYNtPXtImg6T7VVJLSyN-90" value="Modify or delete material" style="ellipse;whiteSpace=wrap;html=1;" vertex="1" parent="1">
          <mxGeometry x="654.5" y="655" width="110" height="50" as="geometry" />
        </mxCell>
        <mxCell id="nYNtPXtImg6T7VVJLSyN-91" value="&amp;lt;&amp;lt;extend&amp;gt;&amp;gt;" style="text;html=1;align=center;verticalAlign=middle;whiteSpace=wrap;rounded=0;" vertex="1" parent="1">
          <mxGeometry x="229.5" y="670" width="70" height="20" as="geometry" />
        </mxCell>
        <mxCell id="nYNtPXtImg6T7VVJLSyN-92" value="" style="endArrow=open;html=1;rounded=0;dashed=1;endFill=0;entryX=0.683;entryY=0.1;entryDx=0;entryDy=0;entryPerimeter=0;exitX=0.3;exitY=1;exitDx=0;exitDy=0;exitPerimeter=0;" edge="1" parent="1" source="nYNtPXtImg6T7VVJLSyN-85" target="nYNtPXtImg6T7VVJLSyN-82">
          <mxGeometry width="50" height="50" relative="1" as="geometry">
            <mxPoint x="358.5" y="600" as="sourcePoint" />
            <mxPoint x="370.5" y="685" as="targetPoint" />
          </mxGeometry>
        </mxCell>
        <mxCell id="nYNtPXtImg6T7VVJLSyN-93" value="&amp;lt;&amp;lt;extend&amp;gt;&amp;gt;" style="text;html=1;align=center;verticalAlign=middle;whiteSpace=wrap;rounded=0;" vertex="1" parent="1">
          <mxGeometry x="289.5" y="590" width="70" height="20" as="geometry" />
        </mxCell>
        <mxCell id="nYNtPXtImg6T7VVJLSyN-94" value="" style="endArrow=open;html=1;rounded=0;dashed=1;endFill=0;entryX=0.5;entryY=0;entryDx=0;entryDy=0;exitX=0.3;exitY=1;exitDx=0;exitDy=0;exitPerimeter=0;" edge="1" parent="1" target="nYNtPXtImg6T7VVJLSyN-83">
          <mxGeometry width="50" height="50" relative="1" as="geometry">
            <mxPoint x="299.5" y="752" as="sourcePoint" />
            <mxPoint x="269.5" y="890" as="targetPoint" />
          </mxGeometry>
        </mxCell>
        <mxCell id="nYNtPXtImg6T7VVJLSyN-95" value="&amp;lt;&amp;lt;extend&amp;gt;&amp;gt;" style="text;html=1;align=center;verticalAlign=middle;whiteSpace=wrap;rounded=0;" vertex="1" parent="1">
          <mxGeometry x="229.5" y="770" width="70" height="20" as="geometry" />
        </mxCell>
        <mxCell id="nYNtPXtImg6T7VVJLSyN-96" value="" style="endArrow=open;html=1;rounded=0;dashed=1;endFill=0;entryX=0.008;entryY=0.619;entryDx=0;entryDy=0;entryPerimeter=0;exitX=1.064;exitY=0.409;exitDx=0;exitDy=0;exitPerimeter=0;" edge="1" parent="1" source="nYNtPXtImg6T7VVJLSyN-82" target="nYNtPXtImg6T7VVJLSyN-89">
          <mxGeometry width="50" height="50" relative="1" as="geometry">
            <mxPoint x="349.5" y="737" as="sourcePoint" />
            <mxPoint x="480.5" y="610" as="targetPoint" />
          </mxGeometry>
        </mxCell>
        <mxCell id="nYNtPXtImg6T7VVJLSyN-97" value="" style="endArrow=open;html=1;rounded=0;dashed=1;endFill=0;entryX=0.008;entryY=0.619;entryDx=0;entryDy=0;entryPerimeter=0;exitX=1;exitY=0.5;exitDx=0;exitDy=0;" edge="1" parent="1" source="nYNtPXtImg6T7VVJLSyN-82">
          <mxGeometry width="50" height="50" relative="1" as="geometry">
            <mxPoint x="357.5" y="813" as="sourcePoint" />
            <mxPoint x="464.5" y="747" as="targetPoint" />
          </mxGeometry>
        </mxCell>
        <mxCell id="nYNtPXtImg6T7VVJLSyN-98" value="" style="endArrow=open;html=1;rounded=0;dashed=1;endFill=0;entryX=0.008;entryY=0.619;entryDx=0;entryDy=0;entryPerimeter=0;exitX=1;exitY=0.5;exitDx=0;exitDy=0;" edge="1" parent="1" source="nYNtPXtImg6T7VVJLSyN-82">
          <mxGeometry width="50" height="50" relative="1" as="geometry">
            <mxPoint x="354.5" y="806.5" as="sourcePoint" />
            <mxPoint x="469.5" y="813.5" as="targetPoint" />
          </mxGeometry>
        </mxCell>
        <mxCell id="nYNtPXtImg6T7VVJLSyN-99" value="&lt;font style=&quot;font-size: 10px;&quot;&gt;&amp;lt;&amp;lt;include&amp;gt;&amp;gt;&lt;/font&gt;" style="text;html=1;align=center;verticalAlign=middle;whiteSpace=wrap;rounded=0;" vertex="1" parent="1">
          <mxGeometry x="389.5" y="678" width="70" height="20" as="geometry" />
        </mxCell>
        <mxCell id="nYNtPXtImg6T7VVJLSyN-100" value="&lt;font style=&quot;font-size: 10px;&quot;&gt;&amp;lt;&amp;lt;include&amp;gt;&amp;gt;&lt;/font&gt;" style="text;html=1;align=center;verticalAlign=middle;whiteSpace=wrap;rounded=0;" vertex="1" parent="1">
          <mxGeometry x="394.5" y="720" width="70" height="20" as="geometry" />
        </mxCell>
        <mxCell id="nYNtPXtImg6T7VVJLSyN-101" value="&lt;font style=&quot;font-size: 10px;&quot;&gt;&amp;lt;&amp;lt;include&amp;gt;&amp;gt;&lt;/font&gt;" style="text;html=1;align=center;verticalAlign=middle;whiteSpace=wrap;rounded=0;" vertex="1" parent="1">
          <mxGeometry x="409.5" y="770" width="70" height="20" as="geometry" />
        </mxCell>
        <mxCell id="nYNtPXtImg6T7VVJLSyN-102" value="" style="endArrow=open;html=1;rounded=0;dashed=1;endFill=0;exitX=1;exitY=0.5;exitDx=0;exitDy=0;entryX=0;entryY=0.5;entryDx=0;entryDy=0;" edge="1" parent="1" target="nYNtPXtImg6T7VVJLSyN-90">
          <mxGeometry width="50" height="50" relative="1" as="geometry">
            <mxPoint x="549.5" y="680" as="sourcePoint" />
            <mxPoint x="671.5" y="678" as="targetPoint" />
          </mxGeometry>
        </mxCell>
        <mxCell id="nYNtPXtImg6T7VVJLSyN-103" value="&lt;font style=&quot;font-size: 10px;&quot;&gt;&amp;lt;&amp;lt;include&amp;gt;&amp;gt;&lt;/font&gt;" style="text;html=1;align=center;verticalAlign=middle;whiteSpace=wrap;rounded=0;" vertex="1" parent="1">
          <mxGeometry x="559.5" y="658" width="70" height="20" as="geometry" />
        </mxCell>
        <mxCell id="nYNtPXtImg6T7VVJLSyN-104" value="" style="endArrow=none;html=1;rounded=0;entryX=0;entryY=0.5;entryDx=0;entryDy=0;exitX=0.633;exitY=0.633;exitDx=0;exitDy=0;exitPerimeter=0;" edge="1" parent="1" source="nYNtPXtImg6T7VVJLSyN-81" target="nYNtPXtImg6T7VVJLSyN-82">
          <mxGeometry width="50" height="50" relative="1" as="geometry">
            <mxPoint x="129.5" y="705" as="sourcePoint" />
            <mxPoint x="179.5" y="655" as="targetPoint" />
          </mxGeometry>
        </mxCell>
        <mxCell id="nYNtPXtImg6T7VVJLSyN-105" value="Manage profile" style="ellipse;whiteSpace=wrap;html=1;" vertex="1" parent="1">
          <mxGeometry x="349.5" y="830" width="91" height="40" as="geometry" />
        </mxCell>
        <mxCell id="nYNtPXtImg6T7VVJLSyN-106" value="Edit personal information" style="ellipse;whiteSpace=wrap;html=1;" vertex="1" parent="1">
          <mxGeometry x="290.5" y="935" width="90" height="50" as="geometry" />
        </mxCell>
        <mxCell id="nYNtPXtImg6T7VVJLSyN-107" value="View profile" style="ellipse;whiteSpace=wrap;html=1;" vertex="1" parent="1">
          <mxGeometry x="425.5" y="935" width="80" height="40" as="geometry" />
        </mxCell>
        <mxCell id="nYNtPXtImg6T7VVJLSyN-108" value="" style="endArrow=open;html=1;rounded=0;dashed=1;endFill=0;exitX=0.3;exitY=1;exitDx=0;exitDy=0;exitPerimeter=0;entryX=0;entryY=1;entryDx=0;entryDy=0;" edge="1" parent="1" target="nYNtPXtImg6T7VVJLSyN-105">
          <mxGeometry width="50" height="50" relative="1" as="geometry">
            <mxPoint x="330.5" y="935" as="sourcePoint" />
            <mxPoint x="350.5" y="860" as="targetPoint" />
          </mxGeometry>
        </mxCell>
        <mxCell id="nYNtPXtImg6T7VVJLSyN-109" value="" style="endArrow=open;html=1;rounded=0;dashed=1;endFill=0;exitX=0.3;exitY=1;exitDx=0;exitDy=0;exitPerimeter=0;entryX=1;entryY=1;entryDx=0;entryDy=0;" edge="1" parent="1" target="nYNtPXtImg6T7VVJLSyN-105">
          <mxGeometry width="50" height="50" relative="1" as="geometry">
            <mxPoint x="457.5" y="935" as="sourcePoint" />
            <mxPoint x="490.5" y="864" as="targetPoint" />
          </mxGeometry>
        </mxCell>
        <mxCell id="nYNtPXtImg6T7VVJLSyN-110" value="&lt;font style=&quot;font-size: 11px;&quot;&gt;&amp;lt;&amp;lt;extend&amp;gt;&amp;gt;&lt;/font&gt;" style="text;html=1;align=center;verticalAlign=middle;whiteSpace=wrap;rounded=0;" vertex="1" parent="1">
          <mxGeometry x="279.5" y="880" width="70" height="20" as="geometry" />
        </mxCell>
        <mxCell id="nYNtPXtImg6T7VVJLSyN-111" value="&lt;font style=&quot;font-size: 11px;&quot;&gt;&amp;lt;&amp;lt;extend&amp;gt;&amp;gt;&lt;/font&gt;" style="text;html=1;align=center;verticalAlign=middle;whiteSpace=wrap;rounded=0;" vertex="1" parent="1">
          <mxGeometry x="440.5" y="880" width="70" height="20" as="geometry" />
        </mxCell>
        <mxCell id="nYNtPXtImg6T7VVJLSyN-112" value="" style="endArrow=open;html=1;rounded=0;dashed=1;endFill=0;entryX=0.264;entryY=0;entryDx=0;entryDy=0;entryPerimeter=0;exitX=1;exitY=0.5;exitDx=0;exitDy=0;" edge="1" parent="1" target="nYNtPXtImg6T7VVJLSyN-105">
          <mxGeometry width="50" height="50" relative="1" as="geometry">
            <mxPoint x="317" y="755" as="sourcePoint" />
            <mxPoint x="432" y="762" as="targetPoint" />
          </mxGeometry>
        </mxCell>
        <mxCell id="nYNtPXtImg6T7VVJLSyN-113" value="Student" style="shape=umlActor;verticalLabelPosition=bottom;verticalAlign=top;html=1;outlineConnect=0;" vertex="1" parent="1">
          <mxGeometry x="121.5" y="1120" width="30" height="60" as="geometry" />
        </mxCell>
        <mxCell id="nYNtPXtImg6T7VVJLSyN-114" value="Login" style="ellipse;whiteSpace=wrap;html=1;" vertex="1" parent="1">
          <mxGeometry x="289.5" y="1185" width="60" height="30" as="geometry" />
        </mxCell>
        <mxCell id="nYNtPXtImg6T7VVJLSyN-115" value="Logout" style="ellipse;whiteSpace=wrap;html=1;" vertex="1" parent="1">
          <mxGeometry x="259.5" y="1290" width="60" height="30" as="geometry" />
        </mxCell>
        <mxCell id="nYNtPXtImg6T7VVJLSyN-116" value="Username" style="ellipse;whiteSpace=wrap;html=1;" vertex="1" parent="1">
          <mxGeometry x="259.5" y="1070" width="70" height="30" as="geometry" />
        </mxCell>
        <mxCell id="nYNtPXtImg6T7VVJLSyN-117" value="Password" style="ellipse;whiteSpace=wrap;html=1;" vertex="1" parent="1">
          <mxGeometry x="339.5" y="1020" width="70" height="30" as="geometry" />
        </mxCell>
        <mxCell id="nYNtPXtImg6T7VVJLSyN-118" value="" style="endArrow=open;html=1;rounded=0;dashed=1;endFill=0;entryX=0.283;entryY=0;entryDx=0;entryDy=0;entryPerimeter=0;exitX=0.5;exitY=1;exitDx=0;exitDy=0;" edge="1" parent="1" source="nYNtPXtImg6T7VVJLSyN-116" target="nYNtPXtImg6T7VVJLSyN-114">
          <mxGeometry width="50" height="50" relative="1" as="geometry">
            <mxPoint x="299.49869565217375" y="1030" as="sourcePoint" />
            <mxPoint x="316.89" y="1130" as="targetPoint" />
          </mxGeometry>
        </mxCell>
        <mxCell id="nYNtPXtImg6T7VVJLSyN-119" value="View mark" style="ellipse;whiteSpace=wrap;html=1;" vertex="1" parent="1">
          <mxGeometry x="469.5" y="1260" width="70" height="30" as="geometry" />
        </mxCell>
        <mxCell id="nYNtPXtImg6T7VVJLSyN-120" value="View notice" style="ellipse;whiteSpace=wrap;html=1;" vertex="1" parent="1">
          <mxGeometry x="464.5" y="1185" width="85" height="45" as="geometry" />
        </mxCell>
        <mxCell id="nYNtPXtImg6T7VVJLSyN-121" value="View course" style="ellipse;whiteSpace=wrap;html=1;" vertex="1" parent="1">
          <mxGeometry x="459.5" y="1115" width="90" height="50" as="geometry" />
        </mxCell>
        <mxCell id="nYNtPXtImg6T7VVJLSyN-122" value="View timetable" style="ellipse;whiteSpace=wrap;html=1;" vertex="1" parent="1">
          <mxGeometry x="457" y="1320" width="100" height="40" as="geometry" />
        </mxCell>
        <mxCell id="nYNtPXtImg6T7VVJLSyN-123" value="&amp;lt;&amp;lt;extend&amp;gt;&amp;gt;" style="text;html=1;align=center;verticalAlign=middle;whiteSpace=wrap;rounded=0;" vertex="1" parent="1">
          <mxGeometry x="229.5" y="1130" width="70" height="20" as="geometry" />
        </mxCell>
        <mxCell id="nYNtPXtImg6T7VVJLSyN-124" value="" style="endArrow=open;html=1;rounded=0;dashed=1;endFill=0;entryX=0.683;entryY=0.1;entryDx=0;entryDy=0;entryPerimeter=0;exitX=0.3;exitY=1;exitDx=0;exitDy=0;exitPerimeter=0;" edge="1" parent="1" source="nYNtPXtImg6T7VVJLSyN-117" target="nYNtPXtImg6T7VVJLSyN-114">
          <mxGeometry width="50" height="50" relative="1" as="geometry">
            <mxPoint x="358.5" y="1060" as="sourcePoint" />
            <mxPoint x="370.5" y="1145" as="targetPoint" />
          </mxGeometry>
        </mxCell>
        <mxCell id="nYNtPXtImg6T7VVJLSyN-125" value="&amp;lt;&amp;lt;extend&amp;gt;&amp;gt;" style="text;html=1;align=center;verticalAlign=middle;whiteSpace=wrap;rounded=0;" vertex="1" parent="1">
          <mxGeometry x="289.5" y="1050" width="70" height="20" as="geometry" />
        </mxCell>
        <mxCell id="nYNtPXtImg6T7VVJLSyN-126" value="" style="endArrow=open;html=1;rounded=0;dashed=1;endFill=0;entryX=0.5;entryY=0;entryDx=0;entryDy=0;exitX=0.3;exitY=1;exitDx=0;exitDy=0;exitPerimeter=0;" edge="1" parent="1" target="nYNtPXtImg6T7VVJLSyN-115">
          <mxGeometry width="50" height="50" relative="1" as="geometry">
            <mxPoint x="299.5" y="1212" as="sourcePoint" />
            <mxPoint x="269.5" y="1350" as="targetPoint" />
          </mxGeometry>
        </mxCell>
        <mxCell id="nYNtPXtImg6T7VVJLSyN-127" value="&amp;lt;&amp;lt;extend&amp;gt;&amp;gt;" style="text;html=1;align=center;verticalAlign=middle;whiteSpace=wrap;rounded=0;" vertex="1" parent="1">
          <mxGeometry x="229.5" y="1230" width="70" height="20" as="geometry" />
        </mxCell>
        <mxCell id="nYNtPXtImg6T7VVJLSyN-128" value="" style="endArrow=open;html=1;rounded=0;dashed=1;endFill=0;entryX=0.008;entryY=0.619;entryDx=0;entryDy=0;entryPerimeter=0;exitX=1.064;exitY=0.409;exitDx=0;exitDy=0;exitPerimeter=0;" edge="1" parent="1" source="nYNtPXtImg6T7VVJLSyN-114" target="nYNtPXtImg6T7VVJLSyN-121">
          <mxGeometry width="50" height="50" relative="1" as="geometry">
            <mxPoint x="349.5" y="1197" as="sourcePoint" />
            <mxPoint x="480.5" y="1070" as="targetPoint" />
          </mxGeometry>
        </mxCell>
        <mxCell id="nYNtPXtImg6T7VVJLSyN-129" value="" style="endArrow=open;html=1;rounded=0;dashed=1;endFill=0;entryX=0.008;entryY=0.619;entryDx=0;entryDy=0;entryPerimeter=0;exitX=1;exitY=0.5;exitDx=0;exitDy=0;" edge="1" parent="1" source="nYNtPXtImg6T7VVJLSyN-114">
          <mxGeometry width="50" height="50" relative="1" as="geometry">
            <mxPoint x="357.5" y="1273" as="sourcePoint" />
            <mxPoint x="464.5" y="1207" as="targetPoint" />
          </mxGeometry>
        </mxCell>
        <mxCell id="nYNtPXtImg6T7VVJLSyN-130" value="" style="endArrow=open;html=1;rounded=0;dashed=1;endFill=0;entryX=0.008;entryY=0.619;entryDx=0;entryDy=0;entryPerimeter=0;exitX=1;exitY=0.5;exitDx=0;exitDy=0;" edge="1" parent="1" source="nYNtPXtImg6T7VVJLSyN-114">
          <mxGeometry width="50" height="50" relative="1" as="geometry">
            <mxPoint x="354.5" y="1266.5" as="sourcePoint" />
            <mxPoint x="469.5" y="1273.5" as="targetPoint" />
          </mxGeometry>
        </mxCell>
        <mxCell id="nYNtPXtImg6T7VVJLSyN-131" value="&lt;font style=&quot;font-size: 10px;&quot;&gt;&amp;lt;&amp;lt;include&amp;gt;&amp;gt;&lt;/font&gt;" style="text;html=1;align=center;verticalAlign=middle;whiteSpace=wrap;rounded=0;" vertex="1" parent="1">
          <mxGeometry x="389.5" y="1138" width="70" height="20" as="geometry" />
        </mxCell>
        <mxCell id="nYNtPXtImg6T7VVJLSyN-132" value="&lt;font style=&quot;font-size: 10px;&quot;&gt;&amp;lt;&amp;lt;include&amp;gt;&amp;gt;&lt;/font&gt;" style="text;html=1;align=center;verticalAlign=middle;whiteSpace=wrap;rounded=0;" vertex="1" parent="1">
          <mxGeometry x="394.5" y="1180" width="70" height="20" as="geometry" />
        </mxCell>
        <mxCell id="nYNtPXtImg6T7VVJLSyN-133" value="&lt;font style=&quot;font-size: 10px;&quot;&gt;&amp;lt;&amp;lt;include&amp;gt;&amp;gt;&lt;/font&gt;" style="text;html=1;align=center;verticalAlign=middle;whiteSpace=wrap;rounded=0;" vertex="1" parent="1">
          <mxGeometry x="409.5" y="1230" width="70" height="20" as="geometry" />
        </mxCell>
        <mxCell id="nYNtPXtImg6T7VVJLSyN-134" value="" style="endArrow=open;html=1;rounded=0;dashed=1;endFill=0;exitX=1;exitY=0.5;exitDx=0;exitDy=0;entryX=0.085;entryY=0.075;entryDx=0;entryDy=0;entryPerimeter=0;" edge="1" parent="1" target="nYNtPXtImg6T7VVJLSyN-122">
          <mxGeometry width="50" height="50" relative="1" as="geometry">
            <mxPoint x="349.5" y="1200" as="sourcePoint" />
            <mxPoint x="499.5" y="1235" as="targetPoint" />
          </mxGeometry>
        </mxCell>
        <mxCell id="nYNtPXtImg6T7VVJLSyN-135" value="&lt;font style=&quot;font-size: 10px;&quot;&gt;&amp;lt;&amp;lt;include&amp;gt;&amp;gt;&lt;/font&gt;" style="text;html=1;align=center;verticalAlign=middle;whiteSpace=wrap;rounded=0;" vertex="1" parent="1">
          <mxGeometry x="441.5" y="1290" width="70" height="20" as="geometry" />
        </mxCell>
        <mxCell id="nYNtPXtImg6T7VVJLSyN-136" value="" style="endArrow=none;html=1;rounded=0;entryX=0;entryY=0.5;entryDx=0;entryDy=0;exitX=0.633;exitY=0.633;exitDx=0;exitDy=0;exitPerimeter=0;" edge="1" parent="1" source="nYNtPXtImg6T7VVJLSyN-113" target="nYNtPXtImg6T7VVJLSyN-114">
          <mxGeometry width="50" height="50" relative="1" as="geometry">
            <mxPoint x="129.5" y="1165" as="sourcePoint" />
            <mxPoint x="179.5" y="1115" as="targetPoint" />
          </mxGeometry>
        </mxCell>
        <mxCell id="nYNtPXtImg6T7VVJLSyN-137" value="View attendance" style="ellipse;whiteSpace=wrap;html=1;" vertex="1" parent="1">
          <mxGeometry x="454.5" y="1400" width="100" height="40" as="geometry" />
        </mxCell>
        <mxCell id="nYNtPXtImg6T7VVJLSyN-138" value="" style="endArrow=open;html=1;rounded=0;dashed=1;endFill=0;exitX=1;exitY=0.5;exitDx=0;exitDy=0;entryX=0.085;entryY=0.075;entryDx=0;entryDy=0;entryPerimeter=0;" edge="1" parent="1" source="nYNtPXtImg6T7VVJLSyN-114" target="nYNtPXtImg6T7VVJLSyN-137">
          <mxGeometry width="50" height="50" relative="1" as="geometry">
            <mxPoint x="349.5" y="1280" as="sourcePoint" />
            <mxPoint x="499.5" y="1315" as="targetPoint" />
          </mxGeometry>
        </mxCell>
        <mxCell id="nYNtPXtImg6T7VVJLSyN-139" value="&lt;font style=&quot;font-size: 10px;&quot;&gt;&amp;lt;&amp;lt;include&amp;gt;&amp;gt;&lt;/font&gt;" style="text;html=1;align=center;verticalAlign=middle;whiteSpace=wrap;rounded=0;" vertex="1" parent="1">
          <mxGeometry x="441.5" y="1370" width="70" height="20" as="geometry" />
        </mxCell>
        <mxCell id="nYNtPXtImg6T7VVJLSyN-140" value="Manage profile" style="ellipse;whiteSpace=wrap;html=1;" vertex="1" parent="1">
          <mxGeometry x="289.5" y="1342.5" width="91" height="40" as="geometry" />
        </mxCell>
        <mxCell id="nYNtPXtImg6T7VVJLSyN-141" value="Edit personal information" style="ellipse;whiteSpace=wrap;html=1;" vertex="1" parent="1">
          <mxGeometry x="230.5" y="1447.5" width="90" height="50" as="geometry" />
        </mxCell>
        <mxCell id="nYNtPXtImg6T7VVJLSyN-142" value="View profile" style="ellipse;whiteSpace=wrap;html=1;" vertex="1" parent="1">
          <mxGeometry x="365.5" y="1447.5" width="80" height="40" as="geometry" />
        </mxCell>
        <mxCell id="nYNtPXtImg6T7VVJLSyN-143" value="" style="endArrow=open;html=1;rounded=0;dashed=1;endFill=0;exitX=0.3;exitY=1;exitDx=0;exitDy=0;exitPerimeter=0;entryX=0;entryY=1;entryDx=0;entryDy=0;" edge="1" parent="1" target="nYNtPXtImg6T7VVJLSyN-140">
          <mxGeometry width="50" height="50" relative="1" as="geometry">
            <mxPoint x="270.5" y="1447.5" as="sourcePoint" />
            <mxPoint x="290.5" y="1372.5" as="targetPoint" />
          </mxGeometry>
        </mxCell>
        <mxCell id="nYNtPXtImg6T7VVJLSyN-144" value="" style="endArrow=open;html=1;rounded=0;dashed=1;endFill=0;exitX=0.3;exitY=1;exitDx=0;exitDy=0;exitPerimeter=0;entryX=1;entryY=1;entryDx=0;entryDy=0;" edge="1" parent="1" target="nYNtPXtImg6T7VVJLSyN-140">
          <mxGeometry width="50" height="50" relative="1" as="geometry">
            <mxPoint x="397.5" y="1447.5" as="sourcePoint" />
            <mxPoint x="430.5" y="1376.5" as="targetPoint" />
          </mxGeometry>
        </mxCell>
        <mxCell id="nYNtPXtImg6T7VVJLSyN-145" value="&lt;font style=&quot;font-size: 11px;&quot;&gt;&amp;lt;&amp;lt;extend&amp;gt;&amp;gt;&lt;/font&gt;" style="text;html=1;align=center;verticalAlign=middle;whiteSpace=wrap;rounded=0;" vertex="1" parent="1">
          <mxGeometry x="219.5" y="1392.5" width="70" height="20" as="geometry" />
        </mxCell>
        <mxCell id="nYNtPXtImg6T7VVJLSyN-146" value="&lt;font style=&quot;font-size: 11px;&quot;&gt;&amp;lt;&amp;lt;extend&amp;gt;&amp;gt;&lt;/font&gt;" style="text;html=1;align=center;verticalAlign=middle;whiteSpace=wrap;rounded=0;" vertex="1" parent="1">
          <mxGeometry x="380.5" y="1392.5" width="70" height="20" as="geometry" />
        </mxCell>
        <mxCell id="nYNtPXtImg6T7VVJLSyN-147" value="" style="endArrow=open;html=1;rounded=0;dashed=1;endFill=0;exitX=1;exitY=0.5;exitDx=0;exitDy=0;entryX=0.615;entryY=0.063;entryDx=0;entryDy=0;entryPerimeter=0;" edge="1" parent="1" target="nYNtPXtImg6T7VVJLSyN-140">
          <mxGeometry width="50" height="50" relative="1" as="geometry">
            <mxPoint x="316.5" y="1215" as="sourcePoint" />
            <mxPoint x="432.5" y="1338" as="targetPoint" />
          </mxGeometry>
        </mxCell>
        <mxCell id="nYNtPXtImg6T7VVJLSyN-148" value="Technical officer" style="shape=umlActor;verticalLabelPosition=bottom;verticalAlign=top;html=1;outlineConnect=0;" vertex="1" parent="1">
          <mxGeometry x="121.5" y="1620" width="30" height="60" as="geometry" />
        </mxCell>
        <mxCell id="nYNtPXtImg6T7VVJLSyN-149" value="Login" style="ellipse;whiteSpace=wrap;html=1;" vertex="1" parent="1">
          <mxGeometry x="289.5" y="1685" width="60" height="30" as="geometry" />
        </mxCell>
        <mxCell id="nYNtPXtImg6T7VVJLSyN-150" value="Logout" style="ellipse;whiteSpace=wrap;html=1;" vertex="1" parent="1">
          <mxGeometry x="259.5" y="1790" width="60" height="30" as="geometry" />
        </mxCell>
        <mxCell id="nYNtPXtImg6T7VVJLSyN-151" value="Username" style="ellipse;whiteSpace=wrap;html=1;" vertex="1" parent="1">
          <mxGeometry x="259.5" y="1570" width="70" height="30" as="geometry" />
        </mxCell>
        <mxCell id="nYNtPXtImg6T7VVJLSyN-152" value="Password" style="ellipse;whiteSpace=wrap;html=1;" vertex="1" parent="1">
          <mxGeometry x="339.5" y="1520" width="70" height="30" as="geometry" />
        </mxCell>
        <mxCell id="nYNtPXtImg6T7VVJLSyN-153" value="" style="endArrow=open;html=1;rounded=0;dashed=1;endFill=0;entryX=0.283;entryY=0;entryDx=0;entryDy=0;entryPerimeter=0;exitX=0.5;exitY=1;exitDx=0;exitDy=0;" edge="1" parent="1" source="nYNtPXtImg6T7VVJLSyN-151" target="nYNtPXtImg6T7VVJLSyN-149">
          <mxGeometry width="50" height="50" relative="1" as="geometry">
            <mxPoint x="299.49869565217375" y="1530" as="sourcePoint" />
            <mxPoint x="316.89" y="1630" as="targetPoint" />
          </mxGeometry>
        </mxCell>
        <mxCell id="nYNtPXtImg6T7VVJLSyN-154" value="View notice" style="ellipse;whiteSpace=wrap;html=1;" vertex="1" parent="1">
          <mxGeometry x="469.5" y="1760" width="70" height="30" as="geometry" />
        </mxCell>
        <mxCell id="nYNtPXtImg6T7VVJLSyN-155" value="Add student medical detail" style="ellipse;whiteSpace=wrap;html=1;" vertex="1" parent="1">
          <mxGeometry x="464.5" y="1685" width="95" height="45" as="geometry" />
        </mxCell>
        <mxCell id="nYNtPXtImg6T7VVJLSyN-156" value="Add&amp;nbsp; student attendance" style="ellipse;whiteSpace=wrap;html=1;" vertex="1" parent="1">
          <mxGeometry x="459.5" y="1615" width="90" height="50" as="geometry" />
        </mxCell>
        <mxCell id="nYNtPXtImg6T7VVJLSyN-157" value="Modify attendance" style="ellipse;whiteSpace=wrap;html=1;" vertex="1" parent="1">
          <mxGeometry x="654.5" y="1615" width="110" height="50" as="geometry" />
        </mxCell>
        <mxCell id="nYNtPXtImg6T7VVJLSyN-158" value="&amp;lt;&amp;lt;extend&amp;gt;&amp;gt;" style="text;html=1;align=center;verticalAlign=middle;whiteSpace=wrap;rounded=0;" vertex="1" parent="1">
          <mxGeometry x="229.5" y="1630" width="70" height="20" as="geometry" />
        </mxCell>
        <mxCell id="nYNtPXtImg6T7VVJLSyN-159" value="" style="endArrow=open;html=1;rounded=0;dashed=1;endFill=0;entryX=0.683;entryY=0.1;entryDx=0;entryDy=0;entryPerimeter=0;exitX=0.3;exitY=1;exitDx=0;exitDy=0;exitPerimeter=0;" edge="1" parent="1" source="nYNtPXtImg6T7VVJLSyN-152" target="nYNtPXtImg6T7VVJLSyN-149">
          <mxGeometry width="50" height="50" relative="1" as="geometry">
            <mxPoint x="358.5" y="1560" as="sourcePoint" />
            <mxPoint x="370.5" y="1645" as="targetPoint" />
          </mxGeometry>
        </mxCell>
        <mxCell id="nYNtPXtImg6T7VVJLSyN-160" value="&amp;lt;&amp;lt;extend&amp;gt;&amp;gt;" style="text;html=1;align=center;verticalAlign=middle;whiteSpace=wrap;rounded=0;" vertex="1" parent="1">
          <mxGeometry x="289.5" y="1550" width="70" height="20" as="geometry" />
        </mxCell>
        <mxCell id="nYNtPXtImg6T7VVJLSyN-161" value="" style="endArrow=open;html=1;rounded=0;dashed=1;endFill=0;entryX=0.5;entryY=0;entryDx=0;entryDy=0;exitX=0.3;exitY=1;exitDx=0;exitDy=0;exitPerimeter=0;" edge="1" parent="1" target="nYNtPXtImg6T7VVJLSyN-150">
          <mxGeometry width="50" height="50" relative="1" as="geometry">
            <mxPoint x="299.5" y="1712" as="sourcePoint" />
            <mxPoint x="269.5" y="1850" as="targetPoint" />
          </mxGeometry>
        </mxCell>
        <mxCell id="nYNtPXtImg6T7VVJLSyN-162" value="&amp;lt;&amp;lt;extend&amp;gt;&amp;gt;" style="text;html=1;align=center;verticalAlign=middle;whiteSpace=wrap;rounded=0;" vertex="1" parent="1">
          <mxGeometry x="229.5" y="1730" width="70" height="20" as="geometry" />
        </mxCell>
        <mxCell id="nYNtPXtImg6T7VVJLSyN-163" value="" style="endArrow=open;html=1;rounded=0;dashed=1;endFill=0;entryX=0.008;entryY=0.619;entryDx=0;entryDy=0;entryPerimeter=0;exitX=1.064;exitY=0.409;exitDx=0;exitDy=0;exitPerimeter=0;" edge="1" parent="1" source="nYNtPXtImg6T7VVJLSyN-149" target="nYNtPXtImg6T7VVJLSyN-156">
          <mxGeometry width="50" height="50" relative="1" as="geometry">
            <mxPoint x="349.5" y="1697" as="sourcePoint" />
            <mxPoint x="480.5" y="1570" as="targetPoint" />
          </mxGeometry>
        </mxCell>
        <mxCell id="nYNtPXtImg6T7VVJLSyN-164" value="" style="endArrow=open;html=1;rounded=0;dashed=1;endFill=0;entryX=0.008;entryY=0.619;entryDx=0;entryDy=0;entryPerimeter=0;exitX=1;exitY=0.5;exitDx=0;exitDy=0;" edge="1" parent="1" source="nYNtPXtImg6T7VVJLSyN-149">
          <mxGeometry width="50" height="50" relative="1" as="geometry">
            <mxPoint x="357.5" y="1773" as="sourcePoint" />
            <mxPoint x="464.5" y="1707" as="targetPoint" />
          </mxGeometry>
        </mxCell>
        <mxCell id="nYNtPXtImg6T7VVJLSyN-165" value="" style="endArrow=open;html=1;rounded=0;dashed=1;endFill=0;entryX=0.008;entryY=0.619;entryDx=0;entryDy=0;entryPerimeter=0;exitX=1;exitY=0.5;exitDx=0;exitDy=0;" edge="1" parent="1" source="nYNtPXtImg6T7VVJLSyN-149">
          <mxGeometry width="50" height="50" relative="1" as="geometry">
            <mxPoint x="354.5" y="1766.5" as="sourcePoint" />
            <mxPoint x="469.5" y="1773.5" as="targetPoint" />
          </mxGeometry>
        </mxCell>
        <mxCell id="nYNtPXtImg6T7VVJLSyN-166" value="&lt;font style=&quot;font-size: 10px;&quot;&gt;&amp;lt;&amp;lt;include&amp;gt;&amp;gt;&lt;/font&gt;" style="text;html=1;align=center;verticalAlign=middle;whiteSpace=wrap;rounded=0;" vertex="1" parent="1">
          <mxGeometry x="389.5" y="1638" width="70" height="20" as="geometry" />
        </mxCell>
        <mxCell id="nYNtPXtImg6T7VVJLSyN-167" value="&lt;font style=&quot;font-size: 10px;&quot;&gt;&amp;lt;&amp;lt;include&amp;gt;&amp;gt;&lt;/font&gt;" style="text;html=1;align=center;verticalAlign=middle;whiteSpace=wrap;rounded=0;" vertex="1" parent="1">
          <mxGeometry x="394.5" y="1680" width="70" height="20" as="geometry" />
        </mxCell>
        <mxCell id="nYNtPXtImg6T7VVJLSyN-168" value="&lt;font style=&quot;font-size: 10px;&quot;&gt;&amp;lt;&amp;lt;include&amp;gt;&amp;gt;&lt;/font&gt;" style="text;html=1;align=center;verticalAlign=middle;whiteSpace=wrap;rounded=0;" vertex="1" parent="1">
          <mxGeometry x="409.5" y="1730" width="70" height="20" as="geometry" />
        </mxCell>
        <mxCell id="nYNtPXtImg6T7VVJLSyN-169" value="" style="endArrow=open;html=1;rounded=0;dashed=1;endFill=0;exitX=1;exitY=0.5;exitDx=0;exitDy=0;entryX=0;entryY=0.5;entryDx=0;entryDy=0;" edge="1" parent="1" target="nYNtPXtImg6T7VVJLSyN-157">
          <mxGeometry width="50" height="50" relative="1" as="geometry">
            <mxPoint x="549.5" y="1640" as="sourcePoint" />
            <mxPoint x="671.5" y="1638" as="targetPoint" />
          </mxGeometry>
        </mxCell>
        <mxCell id="nYNtPXtImg6T7VVJLSyN-170" value="&lt;font style=&quot;font-size: 10px;&quot;&gt;&amp;lt;&amp;lt;include&amp;gt;&amp;gt;&lt;/font&gt;" style="text;html=1;align=center;verticalAlign=middle;whiteSpace=wrap;rounded=0;" vertex="1" parent="1">
          <mxGeometry x="559.5" y="1618" width="70" height="20" as="geometry" />
        </mxCell>
        <mxCell id="nYNtPXtImg6T7VVJLSyN-171" value="" style="endArrow=none;html=1;rounded=0;entryX=0;entryY=0.5;entryDx=0;entryDy=0;exitX=0.633;exitY=0.633;exitDx=0;exitDy=0;exitPerimeter=0;" edge="1" parent="1" source="nYNtPXtImg6T7VVJLSyN-148" target="nYNtPXtImg6T7VVJLSyN-149">
          <mxGeometry width="50" height="50" relative="1" as="geometry">
            <mxPoint x="129.5" y="1665" as="sourcePoint" />
            <mxPoint x="179.5" y="1615" as="targetPoint" />
          </mxGeometry>
        </mxCell>
        <mxCell id="nYNtPXtImg6T7VVJLSyN-172" value="Modify medical detail" style="ellipse;whiteSpace=wrap;html=1;" vertex="1" parent="1">
          <mxGeometry x="654.5" y="1685" width="110" height="50" as="geometry" />
        </mxCell>
        <mxCell id="nYNtPXtImg6T7VVJLSyN-173" value="" style="endArrow=open;html=1;rounded=0;dashed=1;endFill=0;exitX=1;exitY=0.5;exitDx=0;exitDy=0;entryX=0;entryY=0.5;entryDx=0;entryDy=0;" edge="1" parent="1" target="nYNtPXtImg6T7VVJLSyN-172">
          <mxGeometry width="50" height="50" relative="1" as="geometry">
            <mxPoint x="559.5" y="1709.5" as="sourcePoint" />
            <mxPoint x="639.5" y="1690" as="targetPoint" />
          </mxGeometry>
        </mxCell>
        <mxCell id="nYNtPXtImg6T7VVJLSyN-174" value="&lt;font style=&quot;font-size: 10px;&quot;&gt;&amp;lt;&amp;lt;include&amp;gt;&amp;gt;&lt;/font&gt;" style="text;html=1;align=center;verticalAlign=middle;whiteSpace=wrap;rounded=0;" vertex="1" parent="1">
          <mxGeometry x="569.5" y="1685" width="70" height="20" as="geometry" />
        </mxCell>
        <mxCell id="nYNtPXtImg6T7VVJLSyN-175" value="View timetable" style="ellipse;whiteSpace=wrap;html=1;" vertex="1" parent="1">
          <mxGeometry x="469.5" y="1820" width="90" height="40" as="geometry" />
        </mxCell>
        <mxCell id="nYNtPXtImg6T7VVJLSyN-176" value="" style="endArrow=open;html=1;rounded=0;dashed=1;endFill=0;entryX=0.008;entryY=0.619;entryDx=0;entryDy=0;entryPerimeter=0;exitX=1;exitY=0.5;exitDx=0;exitDy=0;" edge="1" parent="1" source="nYNtPXtImg6T7VVJLSyN-149">
          <mxGeometry width="50" height="50" relative="1" as="geometry">
            <mxPoint x="349.5" y="1760" as="sourcePoint" />
            <mxPoint x="469.5" y="1833.5" as="targetPoint" />
          </mxGeometry>
        </mxCell>
        <mxCell id="nYNtPXtImg6T7VVJLSyN-177" value="&lt;font style=&quot;font-size: 10px;&quot;&gt;&amp;lt;&amp;lt;include&amp;gt;&amp;gt;&lt;/font&gt;" style="text;html=1;align=center;verticalAlign=middle;whiteSpace=wrap;rounded=0;" vertex="1" parent="1">
          <mxGeometry x="431.5" y="1794" width="70" height="20" as="geometry" />
        </mxCell>
        <mxCell id="nYNtPXtImg6T7VVJLSyN-178" value="Manage profile" style="ellipse;whiteSpace=wrap;html=1;" vertex="1" parent="1">
          <mxGeometry x="329.5" y="1814" width="91" height="40" as="geometry" />
        </mxCell>
        <mxCell id="nYNtPXtImg6T7VVJLSyN-179" value="Edit personal information" style="ellipse;whiteSpace=wrap;html=1;" vertex="1" parent="1">
          <mxGeometry x="270.5" y="1919" width="90" height="50" as="geometry" />
        </mxCell>
        <mxCell id="nYNtPXtImg6T7VVJLSyN-180" value="View profile" style="ellipse;whiteSpace=wrap;html=1;" vertex="1" parent="1">
          <mxGeometry x="405.5" y="1919" width="80" height="40" as="geometry" />
        </mxCell>
        <mxCell id="nYNtPXtImg6T7VVJLSyN-181" value="" style="endArrow=open;html=1;rounded=0;dashed=1;endFill=0;exitX=0.3;exitY=1;exitDx=0;exitDy=0;exitPerimeter=0;entryX=0;entryY=1;entryDx=0;entryDy=0;" edge="1" parent="1" target="nYNtPXtImg6T7VVJLSyN-178">
          <mxGeometry width="50" height="50" relative="1" as="geometry">
            <mxPoint x="310.5" y="1919" as="sourcePoint" />
            <mxPoint x="330.5" y="1844" as="targetPoint" />
          </mxGeometry>
        </mxCell>
        <mxCell id="nYNtPXtImg6T7VVJLSyN-182" value="" style="endArrow=open;html=1;rounded=0;dashed=1;endFill=0;exitX=0.3;exitY=1;exitDx=0;exitDy=0;exitPerimeter=0;entryX=1;entryY=1;entryDx=0;entryDy=0;" edge="1" parent="1" target="nYNtPXtImg6T7VVJLSyN-178">
          <mxGeometry width="50" height="50" relative="1" as="geometry">
            <mxPoint x="437.5" y="1919" as="sourcePoint" />
            <mxPoint x="470.5" y="1848" as="targetPoint" />
          </mxGeometry>
        </mxCell>
        <mxCell id="nYNtPXtImg6T7VVJLSyN-183" value="&lt;font style=&quot;font-size: 11px;&quot;&gt;&amp;lt;&amp;lt;extend&amp;gt;&amp;gt;&lt;/font&gt;" style="text;html=1;align=center;verticalAlign=middle;whiteSpace=wrap;rounded=0;" vertex="1" parent="1">
          <mxGeometry x="259.5" y="1864" width="70" height="20" as="geometry" />
        </mxCell>
        <mxCell id="nYNtPXtImg6T7VVJLSyN-184" value="&lt;font style=&quot;font-size: 11px;&quot;&gt;&amp;lt;&amp;lt;extend&amp;gt;&amp;gt;&lt;/font&gt;" style="text;html=1;align=center;verticalAlign=middle;whiteSpace=wrap;rounded=0;" vertex="1" parent="1">
          <mxGeometry x="420.5" y="1864" width="70" height="20" as="geometry" />
        </mxCell>
        <mxCell id="nYNtPXtImg6T7VVJLSyN-185" value="" style="endArrow=open;html=1;rounded=0;dashed=1;endFill=0;entryX=0.5;entryY=0;entryDx=0;entryDy=0;exitX=0.3;exitY=1;exitDx=0;exitDy=0;exitPerimeter=0;" edge="1" parent="1" target="nYNtPXtImg6T7VVJLSyN-178">
          <mxGeometry width="50" height="50" relative="1" as="geometry">
            <mxPoint x="328.5" y="1715" as="sourcePoint" />
            <mxPoint x="318.5" y="1793" as="targetPoint" />
          </mxGeometry>
        </mxCell>
        <mxCell id="nYNtPXtImg6T7VVJLSyN-187" value="&lt;font style=&quot;font-size: 14px;&quot;&gt;Student Management Information System-Technical Officer&lt;/font&gt;" style="text;html=1;align=center;verticalAlign=middle;whiteSpace=wrap;rounded=0;" vertex="1" parent="1">
          <mxGeometry x="308.88" y="46" width="391.25" height="30" as="geometry" />
        </mxCell>
        <mxCell id="nYNtPXtImg6T7VVJLSyN-190" value="" style="endArrow=none;html=1;rounded=0;exitX=0.001;exitY=0.021;exitDx=0;exitDy=0;exitPerimeter=0;" edge="1" parent="1">
          <mxGeometry width="50" height="50" relative="1" as="geometry">
            <mxPoint x="200.1005" y="81.15999999999997" as="sourcePoint" />
            <mxPoint x="800" y="80" as="targetPoint" />
          </mxGeometry>
        </mxCell>
        <mxCell id="nYNtPXtImg6T7VVJLSyN-192" value="" style="rounded=0;whiteSpace=wrap;html=1;fillColor=none;" vertex="1" parent="1">
          <mxGeometry x="200" y="40" width="600.5" height="1960" as="geometry" />
        </mxCell>
      </root>
    </mxGraphModel>
  </diagram>
</mxfile>
